<?xml version="1.0" encoding="iso-8859-1"?>
<!-- Generator: Adobe Illustrator 16.0.0, SVG Export Plug-In . SVG Version: 6.00 Build 0)  -->
<!DOCTYPE svg PUBLIC "-//W3C//DTD SVG 1.1//EN" "http://www.w3.org/Graphics/SVG/1.1/DTD/svg11.dtd">
<svg version="1.1" id="Capa_1" xmlns="http://www.w3.org/2000/svg" xmlns:xlink="http://www.w3.org/1999/xlink" x="0px" y="0px"
	 width="467.064px" height="467.064px" viewBox="0 0 467.064 467.064" style="enable-background:new 0 0 467.064 467.064;"
	 xml:space="preserve">
<g>
	<g>
		<path d="M153.141,467.064h160.784c23.78,0,43.116-19.337,43.116-43.117V43.12c0-23.78-19.336-43.12-43.116-43.12H153.141
			c-23.778,0-43.117,19.339-43.117,43.12v380.828C110.023,447.728,129.363,467.064,153.141,467.064z M121.873,43.12
			c0-17.245,14.022-31.268,31.268-31.268h160.784c17.244,0,31.265,14.023,31.265,31.268v380.828
			c0,17.245-14.021,31.271-31.265,31.271H153.141c-17.245,0-31.268-14.025-31.268-31.271V43.12z"/>
		<path d="M233.532,382.638c-13.81,0-25.042,11.232-25.042,25.05c0,13.812,11.232,25.045,25.042,25.045s25.042-11.232,25.042-25.045
			C258.574,393.881,247.342,382.638,233.532,382.638z M233.532,426.807c-10.539,0-19.118-8.572-19.118-19.119
			c0-10.536,8.579-19.123,19.118-19.123c10.54,0,19.116,8.576,19.116,19.123C252.648,418.229,244.072,426.807,233.532,426.807z"/>
		<path d="M136.116,374.28H330.94c1.636,0,2.961-1.326,2.961-2.961V29.412c0-1.635-1.325-2.963-2.961-2.963H136.116
			c-1.635,0-2.963,1.328-2.963,2.963v341.908C133.153,372.954,134.481,374.28,136.116,374.28z M146.981,32.375h173.098
			c4.356,0,7.896,3.54,7.896,7.901v320.182c0,4.356-3.539,7.896-7.896,7.896H146.981c-4.362,0-7.901-3.539-7.901-7.896V40.276
			C139.08,35.914,142.619,32.375,146.981,32.375z"/>
		<path d="M241.056,397.191h-15.044c-1.635,0-2.963,1.325-2.963,2.961v15.056c0,1.636,1.328,2.966,2.963,2.966h15.044
			c1.63,0,2.96-1.33,2.96-2.966v-15.056C244.016,398.517,242.686,397.191,241.056,397.191z M233.532,412.248
			c-2.521,0-4.557-2.047-4.557-4.565c0-2.523,2.036-4.57,4.557-4.57c2.521,0,4.558,2.047,4.558,4.57
			C238.09,410.212,236.043,412.248,233.532,412.248z"/>
	</g>
</g>
<g>
</g>
<g>
</g>
<g>
</g>
<g>
</g>
<g>
</g>
<g>
</g>
<g>
</g>
<g>
</g>
<g>
</g>
<g>
</g>
<g>
</g>
<g>
</g>
<g>
</g>
<g>
</g>
<g>
</g>
</svg>
